<svg width="115" height="46" viewBox="0 0 115 46" fill="none" xmlns="http://www.w3.org/2000/svg">
<path d="M14.8125 17.0781L17.1094 4.9375H20.6133L16.8281 22H13.2891L10.5117 10.5859L7.73438 22H4.19531L0.410156 4.9375H3.91406L6.22266 17.0547L9.03516 4.9375H12.0117L14.8125 17.0781ZM21.3984 15.543C21.3984 14.2852 21.6406 13.1641 22.125 12.1797C22.6094 11.1953 23.3047 10.4336 24.2109 9.89453C25.125 9.35547 26.1836 9.08594 27.3867 9.08594C29.0977 9.08594 30.4922 9.60938 31.5703 10.6562C32.6562 11.7031 33.2617 13.125 33.3867 14.9219L33.4102 15.7891C33.4102 17.7344 32.8672 19.2969 31.7812 20.4766C30.6953 21.6484 29.2383 22.2344 27.4102 22.2344C25.582 22.2344 24.1211 21.6484 23.0273 20.4766C21.9414 19.3047 21.3984 17.7109 21.3984 15.6953V15.543ZM24.7852 15.7891C24.7852 16.9922 25.0117 17.9141 25.4648 18.5547C25.918 19.1875 26.5664 19.5039 27.4102 19.5039C28.2305 19.5039 28.8711 19.1914 29.332 18.5664C29.793 17.9336 30.0234 16.9258 30.0234 15.543C30.0234 14.3633 29.793 13.4492 29.332 12.8008C28.8711 12.1523 28.2227 11.8281 27.3867 11.8281C26.5586 11.8281 25.918 12.1523 25.4648 12.8008C25.0117 13.4414 24.7852 14.4375 24.7852 15.7891ZM34.9688 15.543C34.9688 14.2852 35.2109 13.1641 35.6953 12.1797C36.1797 11.1953 36.875 10.4336 37.7812 9.89453C38.6953 9.35547 39.7539 9.08594 40.957 9.08594C42.668 9.08594 44.0625 9.60938 45.1406 10.6562C46.2266 11.7031 46.832 13.125 46.957 14.9219L46.9805 15.7891C46.9805 17.7344 46.4375 19.2969 45.3516 20.4766C44.2656 21.6484 42.8086 22.2344 40.9805 22.2344C39.1523 22.2344 37.6914 21.6484 36.5977 20.4766C35.5117 19.3047 34.9688 17.7109 34.9688 15.6953V15.543ZM38.3555 15.7891C38.3555 16.9922 38.582 17.9141 39.0352 18.5547C39.4883 19.1875 40.1367 19.5039 40.9805 19.5039C41.8008 19.5039 42.4414 19.1914 42.9023 18.5664C43.3633 17.9336 43.5938 16.9258 43.5938 15.543C43.5938 14.3633 43.3633 13.4492 42.9023 12.8008C42.4414 12.1523 41.793 11.8281 40.957 11.8281C40.1289 11.8281 39.4883 12.1523 39.0352 12.8008C38.582 13.4414 38.3555 14.4375 38.3555 15.7891ZM48.5391 15.5664C48.5391 13.5898 48.9805 12.0156 49.8633 10.8438C50.7539 9.67188 51.9688 9.08594 53.5078 9.08594C54.7422 9.08594 55.7617 9.54688 56.5664 10.4688V4H59.9648V22H56.9062L56.7422 20.6523C55.8984 21.707 54.8125 22.2344 53.4844 22.2344C51.9922 22.2344 50.793 21.6484 49.8867 20.4766C48.9883 19.2969 48.5391 17.6602 48.5391 15.5664ZM51.9258 15.8125C51.9258 17 52.1328 17.9102 52.5469 18.543C52.9609 19.1758 53.5625 19.4922 54.3516 19.4922C55.3984 19.4922 56.1367 19.0508 56.5664 18.168V13.1641C56.1445 12.2812 55.4141 11.8398 54.375 11.8398C52.7422 11.8398 51.9258 13.1641 51.9258 15.8125Z" fill="black"/>
<path d="M26.0391 34.1758H33.5039V37H22.5234V19.9375H26.0391V34.1758ZM42.6562 37C42.5 36.6953 42.3867 36.3164 42.3164 35.8633C41.4961 36.7773 40.4297 37.2344 39.1172 37.2344C37.875 37.2344 36.8438 36.875 36.0234 36.1562C35.2109 35.4375 34.8047 34.5312 34.8047 33.4375C34.8047 32.0938 35.3008 31.0625 36.293 30.3438C37.293 29.625 38.7344 29.2617 40.6172 29.2539H42.1758V28.5273C42.1758 27.9414 42.0234 27.4727 41.7188 27.1211C41.4219 26.7695 40.9492 26.5938 40.3008 26.5938C39.7305 26.5938 39.2812 26.7305 38.9531 27.0039C38.6328 27.2773 38.4727 27.6523 38.4727 28.1289H35.0859C35.0859 27.3945 35.3125 26.7148 35.7656 26.0898C36.2188 25.4648 36.8594 24.9766 37.6875 24.625C38.5156 24.2656 39.4453 24.0859 40.4766 24.0859C42.0391 24.0859 43.2773 24.4805 44.1914 25.2695C45.1133 26.0508 45.5742 27.1523 45.5742 28.5742V34.0703C45.582 35.2734 45.75 36.1836 46.0781 36.8008V37H42.6562ZM39.8555 34.6445C40.3555 34.6445 40.8164 34.5352 41.2383 34.3164C41.6602 34.0898 41.9727 33.7891 42.1758 33.4141V31.2344H40.9102C39.2148 31.2344 38.3125 31.8203 38.2031 32.9922L38.1914 33.1914C38.1914 33.6133 38.3398 33.9609 38.6367 34.2344C38.9336 34.5078 39.3398 34.6445 39.8555 34.6445ZM51.293 24.3203L51.3984 25.7852C52.3047 24.6523 53.5195 24.0859 55.043 24.0859C56.3867 24.0859 57.3867 24.4805 58.043 25.2695C58.6992 26.0586 59.0352 27.2383 59.0508 28.8086V37H55.6641V28.8906C55.6641 28.1719 55.5078 27.6523 55.1953 27.332C54.8828 27.0039 54.3633 26.8398 53.6367 26.8398C52.6836 26.8398 51.9688 27.2461 51.4922 28.0586V37H48.1055V24.3203H51.293ZM61.1016 30.5664C61.1016 28.5898 61.543 27.0156 62.4258 25.8438C63.3164 24.6719 64.5312 24.0859 66.0703 24.0859C67.3047 24.0859 68.3242 24.5469 69.1289 25.4688V19H72.5273V37H69.4688L69.3047 35.6523C68.4609 36.707 67.375 37.2344 66.0469 37.2344C64.5547 37.2344 63.3555 36.6484 62.4492 35.4766C61.5508 34.2969 61.1016 32.6602 61.1016 30.5664ZM64.4883 30.8125C64.4883 32 64.6953 32.9102 65.1094 33.543C65.5234 34.1758 66.125 34.4922 66.9141 34.4922C67.9609 34.4922 68.6992 34.0508 69.1289 33.168V28.1641C68.707 27.2812 67.9766 26.8398 66.9375 26.8398C65.3047 26.8398 64.4883 28.1641 64.4883 30.8125Z" fill="black"/>
<path d="M66 1L67.7961 8.25532H73.6085L68.9062 12.7394L70.7023 19.9947L66 15.5106L61.2977 19.9947L63.0938 12.7394L58.3915 8.25532H64.2039L66 1Z" fill="#B3578E"/>
</svg>
